Coordinates
version=1
nRows=24
nColumns=24
inDegrees=yes

Units are S.I. units (second, meters, Newtons, ...)
Angles are in degrees.

endheader
time	pelvis_tilt	pelvis_list	pelvis_rotation	pelvis_tx	pelvis_ty	pelvis_tz	hip_flexion_r	hip_adduction_r	hip_rotation_r	knee_angle_r	ankle_angle_r	subtalar_angle_r	mtp_angle_r	hip_flexion_l	hip_adduction_l	hip_rotation_l	knee_angle_l	ankle_angle_l	subtalar_angle_l	mtp_angle_l	lumbar_extension	lumbar_bending	lumbar_rotation
      4.40000000	    -11.33768839	     -0.99172744	     -3.00973156	      2.45216380	     -0.00307124	     -0.43952966	      6.06195153	      4.98282602	      4.88412454	     -5.72690907	      0.32041419	     -2.05054866	      7.40030370	     33.63096534	     -7.55003759	    -15.01314329	    -45.48919565	     -8.03137923	      3.16360170	     16.83690248	     10.32939735	      1.02965352	      3.55585300
      4.40500000	    -11.33115519	     -0.88816430	     -3.14167867	      2.45689403	     -0.00348808	     -0.43932344	      5.74911640	      4.87803957	      5.02503867	     -5.70529691	      0.55329143	     -2.02758975	      7.51467845	     33.85454063	     -7.38504169	    -15.16906345	    -44.44624359	     -7.85667919	      3.04847108	     16.54158743	     10.32021596	      0.87802981	      3.68777950
      4.41000000	    -11.25342749	     -0.79882089	     -3.32479602	      2.46157261	     -0.00380072	     -0.43915310	      5.36204446	      4.77603664	      5.20138489	     -5.67483631	      0.73342176	     -1.92238033	      7.69712037	     33.97575896	     -7.24772327	    -15.36257362	    -43.38161787	     -7.68012667	      2.97486794	     16.15664981	     10.22191306	      0.76345160	      3.88323259
      4.41500000	    -11.22849381	     -0.71364806	     -3.47183536	      2.46627486	     -0.00423077	     -0.43899195	      5.03917778	      4.68168512	      5.33613940	     -5.66383912	      0.94506741	     -1.85975199	      7.87557727	     34.15488245	     -7.09785537	    -15.50864294	    -42.30516882	     -7.52755567	      2.99066238	     15.87774226	     10.18432454	      0.63718344	      4.02957363
      4.42000000	    -11.19298996	     -0.63645547	     -3.62077033	      2.47096275	     -0.00466333	     -0.43885241	      4.70999524	      4.58975894	      5.47959408	     -5.66005379	      1.15041386	     -1.77001709	      8.07377196	     34.31114308	     -6.95402359	    -15.65999222	    -41.21156115	     -7.39840479	      3.05690502	     15.61895073	     10.13425669	      0.52062506	      4.19694914
      4.42500000	    -11.18992696	     -0.56638604	     -3.74887662	      2.47567503	     -0.00517661	     -0.43872029	      4.41879715	      4.50874894	      5.59393956	     -5.66737625	      1.37804190	     -1.71064309	      8.24199573	     34.49787191	     -6.80772531	    -15.78811591	    -40.10632668	     -7.30156763	      3.18057933	     15.43326519	     10.12270621	      0.40255476	      4.32629793
      4.43000000	    -11.17912706	     -0.49829113	     -3.88633380	      2.48036278	     -0.00567819	     -0.43863089	      4.12435396	      4.42178716	      5.72560464	     -5.67774434	      1.59217177	     -1.61902146	      8.41369874	     34.66125407	     -6.66169028	    -15.91793675	    -38.97878050	     -7.25273648	      3.35015222	     15.26116794	     10.09454802	      0.29574227	      4.47694983
      4.43500000	    -11.16056558	     -0.42948188	     -4.02282246	      2.48502533	     -0.00618320	     -0.43854907	      3.83124006	      4.33195377	      5.85095748	     -5.70216549	      1.81192188	     -1.52010879	      8.59704668	     34.80531919	     -6.51172861	    -16.04179545	    -37.83404668	     -7.25857925	      3.57127919	     15.11099433	     10.05284272	      0.18516730	      4.63423750
      4.44000000	    -11.19915101	     -0.38045434	     -4.10187288	      2.48968192	     -0.00680130	     -0.43853846	      3.60742045	      4.26655957	      5.93512296	     -5.74831195	      2.04634485	     -1.49092939	      8.71696564	     35.02164124	     -6.35029061	    -16.10122175	    -36.69023761	     -7.31919865	      3.83677209	     15.01643914	     10.06660906	      0.08598047	      4.72553009
      4.44500000	    -11.22525877	     -0.31397162	     -4.21388477	      2.49439120	     -0.00740490	     -0.43845714	      3.37123930	      4.18368415	      6.04060759	     -5.79765939	      2.29359430	     -1.42144970	      8.85065561	     35.19184389	     -6.19315527	    -16.20858483	    -35.51652431	     -7.42833894	      4.13490919	     14.93410488	     10.08262577	     -0.03781099	      4.85218308
      4.45000000	    -11.16547283	     -0.22559102	     -4.38036878	      2.49904225	     -0.00788590	     -0.43838537	      3.05135417	      4.06022754	      6.16995029	     -5.84258842	      2.52433855	     -1.23080257	      9.08274303	     35.23469295	     -6.04208454	    -16.41485075	    -34.30425304	     -7.62014211	      4.45450325	     14.90031329	      9.98859763	     -0.16007625	      5.06614594
      4.45500000	    -11.17544247	     -0.15497028	     -4.47519615	      2.50373374	     -0.00848533	     -0.43833801	      2.80587334	      3.96447070	      6.23898127	     -5.89772765	      2.75822960	     -1.13039364	      9.28758531	     35.36252569	     -5.87411601	    -16.54122032	    -33.09591817	     -7.88662942	      4.81005448	     14.90275734	      9.97852989	     -0.29456589	      5.16957919
      4.46000000	    -11.18709081	     -0.08010516	     -4.57587582	      2.50841730	     -0.00909549	     -0.43834540	      2.57392571	      3.85788081	      6.31029868	     -5.97156656	      2.99285762	     -0.99935093	      9.51315078	     35.47211096	     -5.70196982	    -16.69057194	    -31.86320855	     -8.20339674	      5.18160775	     14.96719145	      9.96319742	     -0.41735180	      5.30558399
      4.46500000	    -11.20826455	     -0.00592765	     -4.66394396	      2.51311693	     -0.00972501	     -0.43834232	      2.35283806	      3.75252577	      6.36062008	     -6.04730871	      3.22262428	     -0.86254552	      9.75156438	     35.57975444	     -5.52832621	    -16.84479765	    -30.61893769	     -8.59375961	      5.57113355	     15.08446022	      9.96003411	     -0.55158844	      5.41651625
      4.47000000	    -11.28206248	      0.05534903	     -4.71029132	      2.51784535	     -0.01043057	     -0.43838229	      2.18162181	      3.66417380	      6.40416671	     -6.11940404	      3.44261057	     -0.77959549	      9.91049464	     35.74853309	     -5.35219563	    -16.98894922	    -29.39533519	     -9.01079132	      6.00538916	     15.12413237	     10.01638864	     -0.68069003	      5.44399766
      4.47500000	    -11.25169125	      0.13929557	     -4.78964276	      2.52256053	     -0.01101275	     -0.43841398	      1.91299021	      3.53504570	      6.37468168	     -6.20157308	      3.66043282	     -0.55081030	     10.31484357	     35.75226884	     -5.15408137	    -17.14281063	    -28.07626766	     -9.57271613	      6.34651551	     15.58104844	      9.95514703	     -0.83052395	      5.56814452
      4.48000000	    -11.30256190	      0.21090234	     -4.86749951	      2.52729198	     -0.01169577	     -0.43843953	      1.73375021	      3.42900947	      6.38513921	     -6.29475661	      3.86647084	     -0.37804840	     10.62678246	     35.84723778	     -4.98301092	    -17.32905686	    -26.80182082	    -10.08793603	      6.77719444	     15.86444499	      9.98288733	     -0.96387240	      5.66207245
      4.48500000	    -11.37777510	      0.28516441	     -4.97225438	      2.53201972	     -0.01240566	     -0.43843001	      1.59261180	      3.32539942	      6.42573127	     -6.41452332	      4.09326559	     -0.18996487	     10.82621565	     35.95349048	     -4.83061226	    -17.55300015	    -25.54361388	    -10.54966718	      7.27363874	     16.03104521	     10.03695480	     -1.09425690	      5.79325433
      4.49000000	    -11.41308368	      0.35703418	     -5.02979258	      2.53683035	     -0.01306654	     -0.43850628	      1.38536966	      3.20763524	      6.38402846	     -6.49457028	      4.28474607	      0.05995040	     11.11152853	     35.99237084	     -4.64203188	    -17.74428498	    -24.24187678	    -11.08657407	      7.71206409	     16.44600087	     10.05483748	     -1.23304398	      5.86252584
      4.49500000	    -11.48104000	      0.42892273	     -5.11390649	      2.54156575	     -0.01377988	     -0.43851038	      1.24333818	      3.10396210	      6.36418768	     -6.62926118	      4.50453018	      0.27247320	     11.34615949	     36.06489539	     -4.48064737	    -17.96879822	    -22.97722016	    -11.55121244	      8.22259692	     16.72378464	     10.09678755	     -1.37269387	      5.96137954
      4.50000000	    -11.53563816	      0.49930697	     -5.18389263	      2.54637830	     -0.01446342	     -0.43856305	      1.07066605	      2.99100130	      6.31135105	     -6.73754068	      4.69459711	      0.53812430	     11.60398338	     36.09876508	     -4.30511898	    -18.18395203	    -21.69632928	    -11.99919612	      8.72085956	     17.07744963	     10.13122684	     -1.51049384	      6.04352042
      4.50500000	    -11.59919912	      0.56808855	     -5.24943357	      2.55121048	     -0.01515250	     -0.43862810	      0.90711252	      2.87867238	      6.24864286	     -6.84643742	      4.87217854	      0.80275715	     11.86490596	     36.12890352	     -4.12687235	    -18.39077479	    -20.42365997	    -12.40108862	      9.21824529	     17.39990859	     10.17650390	     -1.64742775	      6.11629275
      4.51000000	    -11.66595530	      0.63669874	     -5.31836341	      2.55606738	     -0.01583627	     -0.43868647	      0.74728617	      2.76562693	      6.17713411	     -6.95724297	      5.03884792	      1.08130783	     12.12544873	     36.14710154	     -3.95037972	    -18.59527625	    -19.16242782	    -12.74160209	      9.72639544	     17.67704584	     10.22735188	     -1.78576287	      6.18957626
      4.51500000	    -11.73371167	      0.70653966	     -5.38787844	      2.56095156	     -0.01650860	     -0.43874899	      0.58886199	      2.64881548	      6.09471204	     -7.06973889	      5.19404022	      1.37745721	     12.39209391	     36.15148939	     -3.77213703	    -18.79488590	    -17.91383730	    -13.02532461	     10.23669611	     17.90496961	     10.27998759	     -1.92574383	      6.26418672
